Filename:
Legion TS XVID - IMAGiNE

Ripper ...........: IMAGiNE                                        IMDB Rating.......:5.9/10                            
Video Codec.......: XVID                                         Release Date......:09/02/10
Audio Codec.......:MP3                                           Theatre Date......:22/01/10
Audio Bitrate.....:128                                              Runtime.......:1h 29mn
Subtitles.........:NIL                                                 Language..........:ENGLISH
Resolution...... 600 x 300                                      IMDb URL..........:http://www.imdb.com/title/tt1038686/

DETAILS:

Video
ID                               : 0
Format                           : MPEG-4 Visual
Format profile                   : Advanced Simple@L5
Format settings, BVOP            : Yes
Format settings, QPel            : No
Format settings, GMC             : No warppoints
Format settings, Matrix          : Default (H.263)
Muxing mode                      : Packed bitstream
Codec ID                         : XVID
Codec ID/Hint                    : XviD
Duration                         : 1h 29mn
Bit rate                         : 967 Kbps
Width                            : 600 pixels
Height                           : 300 pixels
Display aspect ratio             : 2.000
Frame rate                       : 23.976 fps
Resolution                       : 8 bits
Colorimetry                      : 4:2:0
Scan type                        : Progressive
Bits/(Pixel*Frame)               : 0.224
Stream size                      : 620 MiB (88%)
Writing library                  : XviD 1.2.1 (UTC 2008-12-04)

Audio
ID                               : 1
Format                           : MPEG Audio
Format version                   : Version 1
Format profile                   : Layer 3
Codec ID                         : 55
Codec ID/Hint                    : MP3
Duration                         : 1h 29mn
Bit rate mode                    : Constant
Bit rate                         : 128 Kbps
Channel(s)                       : 2 channels
Sampling rate                    : 44.1 KHz
Stream size                      : 82.1 MiB (12%)
Alignment                        : Split accross interleaves
Interleave, duration             : 42 ms (1.00 video frame)
Interleave, preload duration     : 500 ms


NOTES:

IMAGiNE bringing you another release.....
Right this is the same as our cam release but this time round muxed with the sweet audio from
Ghostman + Greenfrogr- (ELITE)......thanks.
Wil pre warn you whislt the audio is nice the video ain't up to much,so grab the sample and decide yourselfs.
enjoy 